<?xml version="1.0" encoding="UTF-8"?>
<svg version="1.1" xmlns="http://www.w3.org/2000/svg" width="1024" height="1024">
<path d="M0 0 C337.92 0 675.84 0 1024 0 C1024 337.92 1024 675.84 1024 1024 C686.08 1024 348.16 1024 0 1024 C0 686.08 0 348.16 0 0 Z " fill="#FDFAF5" transform="translate(0,0)"/>
<path d="M0 0 C0.73144226 0.00054382 1.46288452 0.00108765 2.2164917 0.00164795 C13.25606804 0.0394123 23.37821867 0.66552476 33.875 4.375 C34.50954102 4.59462402 35.14408203 4.81424805 35.79785156 5.04052734 C65.59706666 15.53038557 89.26398869 35.97655672 103.12744141 64.36523438 C110.21873256 79.40409639 114.15989873 94.29606896 113.94921875 110.921875 C113.94386108 111.74091309 113.93850342 112.55995117 113.9329834 113.40380859 C113.91918106 115.39425171 113.89789154 117.38464066 113.875 119.375 C114.562453 119.36833817 115.24990601 119.36167633 115.95819092 119.35481262 C122.48837616 119.29429556 129.01848129 119.24882177 135.54888535 119.21956348 C138.90499244 119.20401477 142.26068932 119.18131807 145.61669922 119.14868164 C149.48931901 119.11198457 153.36161207 119.09520168 157.234375 119.08203125 C158.419245 119.06654739 159.60411499 119.05106354 160.82489014 119.03511047 C172.12646733 119.03286465 182.44687143 120.31927711 190.875 128.375 C196.49179937 134.06531769 199.16615602 140.17080587 200.40478516 147.9987793 C200.52772257 148.73584201 200.65065998 149.47290472 200.77732277 150.23230267 C202.24225998 159.25219294 203.32234518 168.32176942 204.3984375 177.39453125 C204.62842718 179.3051132 204.85879346 181.21564986 205.08950806 183.12614441 C205.57130711 187.12371857 206.05008901 191.12163742 206.52636719 195.11987305 C207.11936794 200.09780321 207.71748818 205.07509858 208.31767464 210.05216694 C210.34477318 226.86680869 212.35264052 243.68344901 214.25732422 260.51245117 C214.42531178 261.99669822 214.42531178 261.99669822 214.59669304 263.51093006 C215.12637367 268.19888236 215.65289286 272.88716358 216.1746521 277.57600403 C217.38777879 288.42673448 218.75014639 299.2477248 220.25 310.0625 C220.37497864 310.97009064 220.49995728 311.87768127 220.62872314 312.81277466 C220.82530842 314.23839676 221.02241511 315.66394713 221.22021484 317.08940125 C223.04521597 330.29089966 224.63980387 343.5209297 226.25 356.75 C228.94872383 378.91637421 231.72311805 401.07185133 234.56591797 423.22021484 C235.34201192 429.27100713 236.11259574 435.32246716 236.875 441.375 C236.98240509 442.22630493 237.08981018 443.07760986 237.20046997 443.95471191 C239.94454 465.8689127 240.93975052 485.63358281 226.734375 504.16796875 C214.96526955 517.76828117 200.32756031 525.27220766 182.25562978 526.65117347 C178.25275689 526.76193678 174.25587688 526.7805863 170.25210571 526.76268005 C168.71302192 526.76686184 167.1739412 526.77234396 165.63486612 526.77899987 C161.44034736 526.79336245 157.24602663 526.78923876 153.05149746 526.78183305 C148.51422761 526.77708077 143.97699933 526.78962936 139.43974304 526.79985046 C130.56440489 526.81700351 121.68913765 526.81788575 112.81378724 526.81263756 C105.59644591 526.80858815 98.37912546 526.81004856 91.16178513 526.81538582 C90.1326676 526.81613424 89.10355007 526.81688266 88.04324716 526.81765376 C85.95227206 526.81918532 83.86129697 526.82072367 81.77032189 526.82226873 C62.18332374 526.8359811 42.59636558 526.83056494 23.00936835 526.81908352 C5.1112435 526.80915221 -12.78677796 526.82209232 -30.68488686 526.84601771 C-49.08763354 526.87043129 -67.49033211 526.88001104 -85.89309466 526.87336498 C-96.21486647 526.86987782 -106.5365588 526.8720716 -116.85831833 526.88961601 C-125.64475258 526.90436623 -134.43105135 526.90493661 -143.21748303 526.8875451 C-147.69535571 526.87905599 -152.17298666 526.87683418 -156.65084648 526.89219666 C-160.7592091 526.90611634 -164.86712456 526.90118814 -168.9754618 526.88195742 C-170.45244885 526.87821928 -171.92947235 526.88105547 -173.40642671 526.89156907 C-192.70508335 527.01905047 -208.85383747 521.62162524 -223.18359375 508.48828125 C-234.04436382 497.37345808 -239.53199928 482.56282847 -239.40625 467.2109375 C-239.40113403 466.24948822 -239.39601807 465.28803894 -239.39074707 464.29745483 C-239.24360202 454.08786024 -238.01391701 444.10238135 -236.625 434 C-236.35669053 431.96854658 -236.08997902 429.93688159 -235.82470703 427.9050293 C-235.39656764 424.62942985 -234.96703953 421.35405546 -234.53225708 418.07933044 C-233.33700971 409.07283789 -232.20141184 400.05959714 -231.0859375 391.04296875 C-230.91120181 389.63236392 -230.73645814 388.22176008 -230.56170654 386.81115723 C-229.95728787 381.92993054 -229.35357824 377.04861613 -228.75033569 372.16724396 C-226.77577298 356.19493592 -224.72138801 340.23855637 -222.49961853 324.29862976 C-221.27957787 315.54040898 -220.1321482 306.77783052 -219.0625 298 C-218.00010149 289.34307593 -216.91079474 280.69083784 -215.77734375 272.04296875 C-213.92867614 257.92927816 -212.13051918 243.80923007 -210.33773804 229.68835449 C-209.94187737 226.57096662 -209.54502458 223.45370732 -209.14736938 220.33654785 C-206.24188504 197.57481897 -206.24188504 197.57481897 -203.56640625 174.78515625 C-203.39899933 173.30779243 -203.39899933 173.30779243 -203.22821045 171.80058289 C-202.73358578 167.42557013 -202.25199588 163.05000277 -201.79736328 158.6706543 C-200.67647564 148.34585635 -199.12655159 137.51193834 -192.125 129.375 C-183.61986875 122.65693913 -175.21544597 119.23678632 -164.30322266 119.26147461 C-162.62215927 119.26158791 -162.62215927 119.26158791 -160.90713501 119.26170349 C-159.71317108 119.26686478 -158.51920715 119.27202606 -157.2890625 119.27734375 C-156.05457367 119.2787587 -154.82008484 119.28017365 -153.54818726 119.28163147 C-149.61543325 119.28721728 -145.68273672 119.29976725 -141.75 119.3125 C-139.07942792 119.31808088 -136.40885637 119.32207942 -133.73828125 119.32617188 C-127.20050131 119.33718208 -120.66275476 119.35390615 -114.125 119.375 C-114.13580093 118.76550507 -114.14660187 118.15601013 -114.1577301 117.52804565 C-114.50157582 95.19930852 -114.50157582 95.19930852 -112.0625 86.5 C-111.84062012 85.64615723 -111.61874023 84.79231445 -111.39013672 83.91259766 C-106.75334154 66.9342574 -98.32639762 52.86434266 -87.125 39.375 C-86.68414062 38.81039062 -86.24328125 38.24578125 -85.7890625 37.6640625 C-82.37030772 33.3275212 -78.3808633 29.85512902 -74.125 26.375 C-73.27164063 25.67246094 -72.41828125 24.96992188 -71.5390625 24.24609375 C-50.56482417 7.72528959 -26.54568763 -0.07418136 0 0 Z " fill="#FEA226" transform="translate(512.125,134.625)"/>
<path d="M0 0 C1.6412039 1.37674451 3.26657003 2.77260469 4.875 4.1875 C6.01775391 5.18716797 6.01775391 5.18716797 7.18359375 6.20703125 C20.82693899 18.95185462 30.44661692 37.98558985 31.2109375 56.75390625 C31.5903055 82.04999651 24.84920257 101.05394865 8.8125 120.75 C-0.85466956 132.65503674 -6.84078163 143.97763379 -8.33984375 159.49609375 C-9.42966822 163.2318602 -11.12834585 164.73158193 -14.125 167.1875 C-17.42602539 167.82241821 -17.42602539 167.82241821 -21.22265625 167.83447266 C-22.26508987 167.84761505 -22.26508987 167.84761505 -23.32858276 167.86102295 C-25.61553212 167.88294945 -27.90053256 167.868491 -30.1875 167.8515625 C-31.78263722 167.85493265 -33.37777194 167.85978692 -34.97290039 167.86605835 C-38.31193552 167.87342043 -41.65030072 167.86274651 -44.98925781 167.83935547 C-49.263548 167.81086698 -53.53626847 167.82727468 -57.8105011 167.85721779 C-61.10318776 167.87530939 -64.39550391 167.86952444 -67.6882019 167.85657883 C-69.26382637 167.85324991 -70.83948477 167.85731386 -72.41506958 167.86897659 C-74.62006354 167.88171745 -76.822537 167.86226957 -79.02734375 167.83447266 C-80.90667603 167.82850571 -80.90667603 167.82850571 -82.82397461 167.82241821 C-86.99869317 167.01945412 -88.47584416 165.43557425 -91.125 162.1875 C-91.94873047 160.18969727 -91.94873047 160.18969727 -92.2421875 158.25390625 C-92.36972412 157.52993652 -92.49726074 156.8059668 -92.62866211 156.06005859 C-92.81247437 154.91657959 -92.81247437 154.91657959 -93 153.75 C-95.66463383 140.17338237 -101.5044632 130.52570192 -110.27709961 120.08422852 C-126.79941808 100.36882202 -133.24571926 77.65052518 -131.125 52.1875 C-130.37826355 46.99958777 -128.88821921 42.11636691 -127.125 37.1875 C-126.78597656 36.16785156 -126.44695312 35.14820313 -126.09765625 34.09765625 C-118.54974072 13.65650422 -101.98710468 -0.9237878 -82.79296875 -10.23828125 C-55.57546892 -21.91948725 -23.47028851 -18.17054594 0 0 Z " fill="#FCF8F3" transform="translate(562.125,385.8125)"/>
<path d="M0 0 C19.61376504 15.23871764 31.27714781 35.67436149 35.34326172 60.07104492 C35.34326172 65.68104492 35.34326172 71.29104492 35.34326172 77.07104492 C-22.73673828 77.07104492 -80.81673828 77.07104492 -140.65673828 77.07104492 C-140.65673828 53.44153673 -140.65673828 53.44153673 -136.65673828 42.07104492 C-136.29451172 41.02561523 -135.93228516 39.98018555 -135.55908203 38.90307617 C-127.15372405 16.87818898 -109.48991059 0.45557787 -88.44580078 -9.38989258 C-59.74615503 -21.43011336 -25.2773524 -18.63303901 0 0 Z " fill="#FCF9F4" transform="translate(564.65673828125,176.928955078125)"/>
<path d="M0 0 C1.09716339 0.00081573 1.09716339 0.00081573 2.2164917 0.00164795 C13.25606804 0.0394123 23.37821867 0.66552476 33.875 4.375 C34.50954102 4.59462402 35.14408203 4.81424805 35.79785156 5.04052734 C65.59706666 15.53038557 89.26398869 35.97655672 103.12744141 64.36523438 C112.88581232 85.06030816 114.39564297 104.53872477 114.32104492 127.1081543 C114.31530374 129.76500885 114.31903097 132.41940932 114.34155273 135.07592773 C114.37217807 138.9506265 114.37564639 142.82441866 114.37109375 146.69921875 C114.38232773 147.88360031 114.39356171 149.06798187 114.40513611 150.28825378 C114.35170173 156.58740167 114.2327794 160.65113737 109.875 165.375 C105.509442 168.285372 102.07999921 169.0256249 96.875 168.375 C92.41473928 166.0590954 90.10612302 163.83681803 87.875 159.375 C87.49645996 156.70399475 87.49645996 156.70399475 87.49023438 153.79711914 C87.48012329 152.70150162 87.47001221 151.60588409 87.45959473 150.47706604 C87.46261597 149.29998581 87.46563721 148.12290558 87.46875 146.91015625 C87.45791382 145.68525986 87.44707764 144.46036346 87.43591309 143.198349 C87.40164972 139.27801281 87.38607272 135.35796613 87.375 131.4375 C87.36032029 126.30311145 87.32635323 121.16935797 87.28125 116.03515625 C87.28427124 114.8762941 87.28729248 113.71743195 87.29040527 112.52345276 C87.07548506 88.63209567 77.39014332 67.09750251 60.6875 50.15625 C41.61058961 32.44197607 18.46523651 26.16021349 -6.9921875 26.93359375 C-29.92141525 28.21377925 -50.58974804 39.19440797 -66.375 55.5625 C-80.71606638 72.11885306 -87.41587757 91.35228499 -87.3984375 113.16796875 C-87.41353238 115.16157796 -87.42865028 117.1551873 -87.44512367 119.14878559 C-87.48270666 124.02646731 -87.5000691 128.9041673 -87.50585938 133.78198242 C-87.50990995 136.53324609 -87.52449133 139.2840865 -87.55020142 142.03523254 C-87.57357899 144.6160988 -87.58103907 147.19717073 -87.57064819 149.77812195 C-87.69290354 160.57878345 -87.69290354 160.57878345 -92.125 165.375 C-95.58615868 168.2592989 -98.61335145 168.9187838 -103.1328125 168.72265625 C-107.54089469 167.95340269 -110.24706793 165.6200887 -112.76367188 162.05102539 C-114.82671714 156.4801372 -114.59279037 151.07935297 -114.59375 145.18359375 C-114.60136353 143.88792984 -114.60897705 142.59226593 -114.61682129 141.25733948 C-114.63025171 138.50944389 -114.63184763 135.76183518 -114.62597656 133.01391602 C-114.62130861 130.23938073 -114.63482245 127.46600124 -114.66699219 124.69165039 C-115.04886741 91.38950879 -108.69452264 65.35021238 -87.125 39.375 C-86.68414062 38.81039062 -86.24328125 38.24578125 -85.7890625 37.6640625 C-82.37030772 33.3275212 -78.3808633 29.85512902 -74.125 26.375 C-73.27164063 25.67246094 -72.41828125 24.96992188 -71.5390625 24.24609375 C-50.56482417 7.72528959 -26.54568763 -0.07418136 0 0 Z " fill="#373F41" transform="translate(512.125,134.625)"/>
<path d="M0 0 C1.32735924 -0.00855011 1.32735924 -0.00855011 2.68153381 -0.01727295 C4.56380004 -0.02674514 6.44608301 -0.03326569 8.32836914 -0.03710938 C11.17950573 -0.04672941 14.02989486 -0.07769487 16.88085938 -0.109375 C18.71223532 -0.11591359 20.54361641 -0.12116069 22.375 -0.125 C23.21707504 -0.1373468 24.05915009 -0.1496936 24.92674255 -0.16241455 C33.4819156 -0.13098362 41.52812047 1.73314365 48.28515625 7.203125 C53.92446186 13.31237275 54.80225403 18.83527535 54.6640625 26.9609375 C54.11974404 31.61850783 52.67500874 34.93590284 49.28515625 38.203125 C45.97265625 39.703125 45.97265625 39.703125 43.28515625 40.203125 C43.28515625 40.863125 43.28515625 41.523125 43.28515625 42.203125 C43.96578125 42.244375 44.64640625 42.285625 45.34765625 42.328125 C50.83701659 43.96325361 54.29213021 47.56943701 57.22265625 52.390625 C59.42349909 60.28776695 59.01439057 67.49449877 55.59765625 74.98046875 C51.27472988 82.3011387 44.20708775 85.02599744 36.28515625 87.203125 C32.55281453 87.67387155 28.90547077 87.67544673 25.1484375 87.59375 C24.14298386 87.58809021 23.13753021 87.58243042 22.10160828 87.57659912 C18.9331115 87.55445205 15.76580328 87.50429812 12.59765625 87.453125 C10.43165711 87.43303194 8.26564001 87.41478613 6.09960938 87.3984375 C0.82772882 87.35465903 -4.44347252 87.28796947 -9.71484375 87.203125 C-9.73796644 76.00739256 -9.75575846 64.81166576 -9.76665592 53.61591434 C-9.77188491 48.41784385 -9.77898285 43.21978964 -9.7902832 38.02172852 C-9.80111151 33.00970232 -9.80712046 27.99769182 -9.80972099 22.98565483 C-9.81157534 21.06900218 -9.81519615 19.15235043 -9.82057381 17.23570442 C-9.8277835 14.56084428 -9.82883472 11.88604986 -9.82836914 9.21118164 C-9.83196442 8.4106134 -9.83555969 7.61004517 -9.83926392 6.78521729 C-9.82404646 -1.24040398 -7.19270857 0.03553223 0 0 Z " fill="#363E40" transform="translate(267.71484375,823.796875)"/>
<path d="M0 0 C1.18613892 0.00785522 1.18613892 0.00785522 2.39624023 0.01586914 C3.67724609 0.02070312 3.67724609 0.02070312 4.98413086 0.02563477 C5.88196289 0.03401367 6.77979492 0.04239258 7.70483398 0.05102539 C8.6065332 0.05553711 9.50823242 0.06004883 10.43725586 0.06469727 C12.67234712 0.07652315 14.90730835 0.09300319 17.14233398 0.11352539 C17.79081299 1.28987549 17.79081299 1.28987549 18.45239258 2.48999023 C26.65997023 17.37698832 34.87138386 32.26160294 43.14233398 47.11352539 C45.71082207 43.88442903 47.67721603 40.48942658 49.65405273 36.87133789 C49.98597122 36.26651581 50.31788971 35.66169373 50.65986633 35.0385437 C51.71943472 33.10678257 52.77487981 31.17280964 53.82983398 29.23852539 C55.20702093 26.71935209 56.58610797 24.20122738 57.96655273 21.68383789 C58.30621063 21.06406067 58.64586853 20.44428345 58.99581909 19.8057251 C62.62924592 13.19472079 66.37713216 6.65013269 70.14233398 0.11352539 C73.28814822 0.08464025 76.43392867 0.06676616 79.57983398 0.05102539 C80.92658203 0.03845703 80.92658203 0.03845703 82.30053711 0.02563477 C83.15454102 0.02241211 84.00854492 0.01918945 84.88842773 0.01586914 C85.67918701 0.01063232 86.46994629 0.00539551 87.28466797 0 C89.14233398 0.11352539 89.14233398 0.11352539 90.14233398 1.11352539 C90.24280202 3.81652838 90.27849851 6.49400885 90.27172852 9.19750977 C90.27435699 10.46816032 90.27435699 10.46816032 90.27703857 11.76448059 C90.28145808 14.57876606 90.27851876 17.39298923 90.27514648 20.20727539 C90.2758195 22.15401217 90.2767895 24.10074886 90.27804565 26.04748535 C90.27952276 30.13314614 90.27736766 34.2187851 90.27270508 38.30444336 C90.26700778 43.55399055 90.27028672 48.80348661 90.27627754 54.05303192 C90.27988281 58.07460926 90.27874473 62.09617438 90.27614975 66.11775208 C90.27548039 68.05393988 90.27630923 69.99012878 90.2786293 71.92631531 C90.28115527 74.62742064 90.27731603 77.32844198 90.27172852 80.02954102 C90.27375275 80.83788895 90.27577698 81.64623688 90.27786255 82.4790802 C90.25659646 87.99926291 90.25659646 87.99926291 89.14233398 89.11352539 C83.53233398 89.11352539 77.92233398 89.11352539 72.14233398 89.11352539 C71.81233398 70.63352539 71.48233398 52.15352539 71.14233398 33.11352539 C59.50241475 53.03692941 59.50241475 53.03692941 48.14233398 73.11352539 C45.17233398 73.11352539 42.20233398 73.11352539 39.14233398 73.11352539 C38.6943042 72.32816406 38.24627441 71.54280273 37.78466797 70.73364258 C36.08720834 67.75877192 34.38922756 64.7841999 32.69091797 61.80981445 C31.96252595 60.53388803 31.23432888 59.2578503 30.50634766 57.98168945 C29.44674884 56.12428365 28.38639749 54.26730905 27.32592773 52.41040039 C26.69227295 51.30019531 26.05861816 50.18999023 25.40576172 49.04614258 C22.34130171 43.72176314 19.23775652 38.41996402 16.14233398 33.11352539 C15.81233398 51.59352539 15.48233398 70.07352539 15.14233398 89.11352539 C9.53233398 89.11352539 3.92233398 89.11352539 -1.85766602 89.11352539 C-3.65508422 87.31610719 -2.98397548 84.87214577 -2.99319458 82.4790802 C-2.99117035 81.67073227 -2.98914612 80.86238434 -2.98706055 80.02954102 C-2.98881287 79.18244064 -2.99056519 78.33534027 -2.99237061 77.46257019 C-2.99679011 74.64828473 -2.99385079 71.83406155 -2.99047852 69.01977539 C-2.99115153 67.07303861 -2.99212153 65.12630192 -2.99337769 63.17956543 C-2.99485479 59.09390464 -2.99269969 55.00826568 -2.98803711 50.92260742 C-2.98233982 45.67306024 -2.98561875 40.42356417 -2.99160957 35.17401886 C-2.99521484 31.15244152 -2.99407676 27.1308764 -2.99148178 23.10929871 C-2.99081242 21.1731109 -2.99164126 19.236922 -2.99396133 17.30073547 C-2.9964873 14.59963015 -2.99264806 11.8986088 -2.98706055 9.19750977 C-2.98908478 8.38916183 -2.99110901 7.5808139 -2.99319458 6.74797058 C-2.96789726 0.18137367 -2.96789726 0.18137367 0 0 Z " fill="#363E40" transform="translate(381.857666015625,708.886474609375)"/>
<path d="M0 0 C0.87779114 -0.00807175 1.75558228 -0.01614349 2.65997314 -0.02445984 C4.52964287 -0.03833123 6.39933825 -0.04903963 8.26904297 -0.05688477 C11.0874321 -0.07389766 13.90458549 -0.11772836 16.72265625 -0.16210938 C28.59236374 -0.26542506 40.01783491 -0.15680343 49.890625 7.36328125 C56.00734996 13.49296537 58.66657367 19.63746334 58.890625 28.30078125 C58.53634203 37.11955462 56.946448 43.97382817 50.390625 50.23828125 C47.80380013 51.78172137 45.16462413 53.06810792 42.390625 54.23828125 C43.7965626 58.08280542 45.59520726 61.35408095 47.796875 64.80078125 C48.45816406 65.84492187 49.11945312 66.8890625 49.80078125 67.96484375 C50.49042969 69.04507813 51.18007813 70.1253125 51.890625 71.23828125 C53.25902549 73.38168239 54.62375446 75.52743302 55.984375 77.67578125 C56.58958984 78.62324219 57.19480469 79.57070313 57.81835938 80.546875 C59.28724634 83.06131753 60.39213309 85.50791379 61.390625 88.23828125 C60.390625 89.23828125 60.390625 89.23828125 58.44116211 89.35180664 C57.6085083 89.34656982 56.77585449 89.34133301 55.91796875 89.3359375 C55.01884766 89.33271484 54.11972656 89.32949219 53.19335938 89.32617188 C51.77506836 89.31360352 51.77506836 89.31360352 50.328125 89.30078125 C49.37873047 89.29626953 48.42933594 89.29175781 47.45117188 89.28710938 C45.09759435 89.27528235 42.74414023 89.2588015 40.390625 89.23828125 C39.83375 88.17351562 39.276875 87.10875 38.703125 86.01171875 C34.24940289 77.53128998 29.6857325 69.15258658 24.82421875 60.8984375 C23.390625 58.23828125 23.390625 58.23828125 23.390625 56.23828125 C18.770625 56.23828125 14.150625 56.23828125 9.390625 56.23828125 C9.390625 67.12828125 9.390625 78.01828125 9.390625 89.23828125 C6.44125 89.25890625 3.491875 89.27953125 0.453125 89.30078125 C-0.94280884 89.31443726 -0.94280884 89.31443726 -2.36694336 89.32836914 C-3.45954468 89.33211548 -3.45954468 89.33211548 -4.57421875 89.3359375 C-5.3230835 89.34117432 -6.07194824 89.34641113 -6.84350586 89.35180664 C-8.609375 89.23828125 -8.609375 89.23828125 -9.609375 88.23828125 C-9.70984303 85.53527826 -9.74553952 82.85779779 -9.73876953 80.15429688 C-9.74052185 79.3071965 -9.74227417 78.46009613 -9.74407959 77.58732605 C-9.74849909 74.77304059 -9.74555977 71.95881741 -9.7421875 69.14453125 C-9.74286051 67.19779447 -9.74383051 65.25105778 -9.74508667 63.30432129 C-9.74656378 59.2186605 -9.74440868 55.13302154 -9.73974609 51.04736328 C-9.7340488 45.79781609 -9.73732774 40.54832003 -9.74331856 35.29877472 C-9.74692383 31.27719738 -9.74578574 27.25563226 -9.74319077 23.23405457 C-9.7425214 21.29786676 -9.74335025 19.36167786 -9.74567032 17.42549133 C-9.74819629 14.72438601 -9.74435705 12.02336466 -9.73876953 9.32226562 C-9.74079376 8.51391769 -9.74281799 7.70556976 -9.74490356 6.87272644 C-9.7140454 -1.13733783 -7.207359 0.06257069 0 0 Z " fill="#373F41" transform="translate(600.609375,708.76171875)"/>
<path d="M0 0 C50.73214286 0 50.73214286 0 59.58984375 8.53125 C66.1066379 15.54198209 67.607707 22.25464007 67.34375 31.74609375 C66.53575203 39.39452904 63.95458767 44.97066787 57.9765625 49.84375 C55.43233462 51.33207303 52.81195852 52.14453093 50 53 C51.85156801 56.10572352 53.70644346 59.20945698 55.5625 62.3125 C56.1080957 63.22572021 56.65369141 64.13894043 57.21582031 65.07983398 C60.6508514 70.81014592 64.16381967 76.45806498 67.890625 82.00390625 C69 84 69 84 69 87 C62.4 87 55.8 87 49 87 C48.10796875 85.42089844 47.2159375 83.84179688 46.296875 82.21484375 C45.11459219 80.12239083 43.93230003 78.02994319 42.75 75.9375 C42.16347656 74.89916016 41.57695313 73.86082031 40.97265625 72.79101562 C40.39902344 71.77587891 39.82539062 70.76074219 39.234375 69.71484375 C38.67814453 68.7285498 38.12191406 67.74225586 37.54882812 66.72607422 C36.24498448 64.43119432 34.91593278 62.15400528 33.578125 59.87890625 C32 57 32 57 32 55 C27.38 55 22.76 55 18 55 C18 65.56 18 76.12 18 87 C12.06 87 6.12 87 0 87 C0 58.29 0 29.58 0 0 Z " fill="#353D3E" transform="translate(708,824)"/>
<path d="M0 0 C0.74886475 0.00523682 1.49772949 0.01047363 2.26928711 0.01586914 C3.07817383 0.0190918 3.88706055 0.02231445 4.72045898 0.02563477 C5.5705957 0.03401367 6.42073242 0.04239258 7.29663086 0.05102539 C8.15063477 0.05553711 9.00463867 0.06004883 9.88452148 0.06469727 C12.00108749 0.07652166 14.11761771 0.0944577 16.23413086 0.11352539 C18.93032215 5.37531053 21.36361209 10.64334727 23.54980469 16.13427734 C23.85435577 16.89140518 24.15890686 17.64853302 24.47268677 18.42860413 C25.46600303 20.90149203 26.45401279 23.37645105 27.44116211 25.85180664 C28.13283519 27.58197842 28.82454207 29.3121367 29.51628113 31.0422821 C30.95866041 34.65294848 32.39790541 38.26484736 33.83544922 41.87744141 C35.68061099 46.51252129 37.53779567 51.14268403 39.39781666 55.77181721 C40.82733879 59.33539954 42.24840601 62.90230805 43.66711998 66.47020531 C44.3486117 68.17992137 45.03324569 69.88838833 45.72104836 71.59557533 C46.6781148 73.97352089 47.62321549 76.35588417 48.56542969 78.73974609 C48.85261368 79.44574951 49.13979767 80.15175293 49.4356842 80.87915039 C51.3482668 85.77111756 51.3482668 85.77111756 50.23413086 89.11352539 C44.29413086 89.11352539 38.35413086 89.11352539 32.23413086 89.11352539 C29.67787357 83.47213 27.41788714 77.93687549 25.23413086 72.11352539 C13.35413086 71.78352539 1.47413086 71.45352539 -10.76586914 71.11352539 C-11.75586914 74.74352539 -12.74586914 78.37352539 -13.76586914 82.11352539 C-14.75586914 84.42352539 -15.74586914 86.73352539 -16.76586914 89.11352539 C-23.03586914 89.11352539 -29.30586914 89.11352539 -35.76586914 89.11352539 C-35.08165833 85.00826054 -34.56357961 82.16569395 -33.11450195 78.45800781 C-32.60631424 77.14530159 -32.60631424 77.14530159 -32.08786011 75.80607605 C-31.71863434 74.86983902 -31.34940857 73.93360199 -30.96899414 72.96899414 C-30.58341339 71.97793167 -30.19783264 70.9868692 -29.80056763 69.96577454 C-28.54464749 66.74195523 -27.28046535 63.52145012 -26.01586914 60.30102539 C-25.15167132 58.08895308 -24.28790383 55.8767126 -23.42456055 53.66430664 C-21.27787936 48.16754067 -19.12414696 42.67356824 -16.96838379 37.18035889 C-15.51143399 33.46462664 -14.05960787 29.74690958 -12.60852051 26.02888489 C-11.39930347 22.93185216 -10.1874021 19.8358775 -8.97424316 16.74038696 C-8.41999847 15.32589395 -7.86636583 13.91116096 -7.31335449 12.4961853 C-6.55803799 10.56547444 -5.79927557 8.6361588 -5.03930664 6.70727539 C-4.62084473 5.64186523 -4.20238281 4.57645508 -3.77124023 3.47875977 C-2.35695975 0.15152582 -2.35695975 0.15152582 0 0 Z " fill="#363E3F" transform="translate(524.765869140625,708.886474609375)"/>
<path d="M0 0 C1.18613892 0.00785522 1.18613892 0.00785522 2.39624023 0.01586914 C3.67724609 0.02070312 3.67724609 0.02070312 4.98413086 0.02563477 C5.88196289 0.03401367 6.77979492 0.04239258 7.70483398 0.05102539 C8.6065332 0.05553711 9.50823242 0.06004883 10.43725586 0.06469727 C12.67234712 0.07652315 14.90730835 0.09300319 17.14233398 0.11352539 C24.61163982 17.81722804 31.79222964 35.63458218 38.88931274 53.49038696 C39.8495978 55.90565554 40.81132891 58.32034967 41.77450562 60.73446655 C43.14505147 64.17157242 44.50976346 67.61093688 45.87280273 71.05102539 C46.49705139 72.61346733 46.49705139 72.61346733 47.13391113 74.20747375 C47.51591675 75.17549423 47.89792236 76.14351471 48.29150391 77.14086914 C48.62615158 77.98383545 48.96079926 78.82680176 49.30558777 79.6953125 C50.14233398 82.11352539 50.14233398 82.11352539 51.14233398 87.11352539 C44.54233398 87.11352539 37.94233398 87.11352539 31.14233398 87.11352539 C29.16233398 81.83352539 27.18233398 76.55352539 25.14233398 71.11352539 C13.59233398 71.11352539 2.04233398 71.11352539 -9.85766602 71.11352539 C-11.83766602 76.39352539 -13.81766602 81.67352539 -15.85766602 87.11352539 C-22.45766602 87.11352539 -29.05766602 87.11352539 -35.85766602 87.11352539 C-32.48246288 76.98791597 -32.48246288 76.98791597 -30.94750977 73.03808594 C-30.6024942 72.14723801 -30.25747864 71.25639008 -29.90200806 70.33854675 C-29.35412125 68.93358696 -29.35412125 68.93358696 -28.79516602 67.50024414 C-28.40694672 66.4997554 -28.01872742 65.49926666 -27.6187439 64.46846008 C-26.36727124 61.24511406 -25.11263607 58.02301119 -23.85766602 54.80102539 C-22.99770468 52.58947498 -22.13784172 50.3778863 -21.27807617 48.16625977 C-19.18403808 42.78182425 -17.08695045 37.39858283 -14.98864746 32.01580811 C-13.96061076 29.37769838 -12.93372098 26.73914686 -11.9074707 24.1003418 C-10.35282737 20.10331386 -8.79362955 16.10808945 -7.23266602 12.11352539 C-6.79051758 10.9774585 -6.34836914 9.8413916 -5.89282227 8.67089844 C-5.49708008 7.66196533 -5.10133789 6.65303223 -4.69360352 5.61352539 C-4.35893066 4.75758789 -4.02425781 3.90165039 -3.67944336 3.01977539 C-2.44196306 0.14923286 -2.44196306 0.14923286 0 0 Z " fill="#353D3E" transform="translate(547.857666015625,823.886474609375)"/>
<path d="M0 0 C6.27 0 12.54 0 19 0 C23.49953312 8.99906624 23.49953312 8.99906624 25.23901367 13.42431641 C25.63009811 14.4138028 26.02118256 15.40328918 26.42411804 16.42276001 C26.83458878 17.47176483 27.24505951 18.52076965 27.66796875 19.6015625 C28.10708084 20.71445648 28.54619293 21.82735046 28.99861145 22.97396851 C30.39833835 26.52297218 31.79320358 30.07385975 33.1875 33.625 C35.01237089 38.26379148 36.83987633 42.90153984 38.66796875 47.5390625 C39.11268524 48.67039612 39.55740173 49.80172974 40.01559448 50.96734619 C42.1923837 56.48975985 44.39985939 61.99583748 46.68212891 67.47558594 C47.10279129 68.48744965 47.52345367 69.49931335 47.9568634 70.5418396 C48.74820572 72.4369679 49.54562124 74.32957588 50.35014343 76.21914673 C50.70035049 77.05738983 51.05055756 77.89563293 51.41137695 78.75927734 C51.8737249 79.84902359 51.8737249 79.84902359 52.34541321 80.96078491 C53 83 53 83 53 87 C46.73 87 40.46 87 34 87 C29.125 75.625 29.125 75.625 28 70 C16.12 70 4.24 70 -8 70 C-8.99 73.3 -9.98 76.6 -11 80 C-11.99 82.31 -12.98 84.62 -14 87 C-20.27 87 -26.54 87 -33 87 C-32.10305198 82.51525988 -30.79664248 78.54661719 -29.1484375 74.31640625 C-28.85733597 73.56019485 -28.56623444 72.80398346 -28.26631165 72.02485657 C-27.30667456 69.53578554 -26.34100522 67.04910578 -25.375 64.5625 C-24.70529313 62.83031506 -24.03578087 61.09805488 -23.36645508 59.36572266 C-15.69229607 39.53275927 -7.89796566 19.74491414 0 0 Z " fill="#353D3E" transform="translate(641,824)"/>
<path d="M0 0 C6.27 0 12.54 0 19 0 C27.73263201 19.41487488 35.55768696 39.25356737 43.51312256 58.9967041 C44.33684013 61.03841806 45.1628861 63.07919421 45.99127197 65.11901855 C47.1624127 68.0050544 48.32450513 70.8945756 49.484375 73.78515625 C49.84004547 74.65686966 50.19571594 75.52858307 50.56216431 76.42671204 C50.88421844 77.23472763 51.20627258 78.04274323 51.53808594 78.87524414 C51.82165955 79.57831192 52.10523315 80.2813797 52.3973999 81.00575256 C53 83 53 83 53 87 C46.73 87 40.46 87 34 87 C33.01 84.56625 32.02 82.1325 31 79.625 C30.68675781 78.86010254 30.37351562 78.09520508 30.05078125 77.30712891 C28 72.22222222 28 72.22222222 28 70 C16.12 70 4.24 70 -8 70 C-8.99 73.3 -9.98 76.6 -11 80 C-11.99 82.31 -12.98 84.62 -14 87 C-20.27 87 -26.54 87 -33 87 C-32.26918862 82.61513169 -31.63252619 79.65148212 -30.02563477 75.68261719 C-29.41347862 74.1574649 -29.41347862 74.1574649 -28.78895569 72.60150146 C-28.12191872 70.96571136 -28.12191872 70.96571136 -27.44140625 69.296875 C-26.97822495 68.14624573 -26.51504364 66.99561646 -26.03782654 65.81011963 C-24.80141787 62.74085983 -23.5600566 59.67370777 -22.31585693 56.60760498 C-20.12064641 51.19472057 -17.93751243 45.77694824 -15.75390625 40.359375 C-15.27780914 39.17935913 -14.80171204 37.99934326 -14.31118774 36.78356934 C-9.40011715 24.57590524 -4.6828875 12.29683249 0 0 Z " fill="#353D3E" transform="translate(369,824)"/>
<path d="M0 0 C2.08728599 1.59994609 3.382256 2.88019751 5 5 C4.9453125 6.90625 4.9453125 6.90625 4 9 C1.63671875 10.9921875 1.63671875 10.9921875 -1.3125 12.875 C-2.27800781 13.51179687 -3.24351562 14.14859375 -4.23828125 14.8046875 C-7 16 -7 16 -9.1328125 15.35546875 C-10.05707031 14.68451172 -10.05707031 14.68451172 -11 14 C-11.59941406 13.58621094 -12.19882812 13.17242188 -12.81640625 12.74609375 C-13.98338613 11.87151152 -15.15005138 10.99650932 -16.31640625 10.12109375 C-19.84915279 7.7686616 -23.24898133 7.77719606 -27.375 7.6875 C-28.49648438 7.65011719 -29.61796875 7.61273437 -30.7734375 7.57421875 C-34.69164323 8.09127011 -36.28325563 9.16902323 -39 12 C-40.12161422 14.86381703 -39.8775951 17.08215141 -39 20 C-33.97989461 24.69458097 -27.04599214 26.50900497 -20.625 28.4375 C-10.45925453 31.66988938 -1.22118419 34.86263572 5 44 C8.15827661 50.6178729 7.92339764 57.870708 5.875 64.8125 C0.83841214 73.37469936 -5.14632275 78.2487953 -14.734375 81.1171875 C-27.86756909 84.2067201 -41.30352406 82.58678001 -52.8125 75.6875 C-57.03396421 72.8771768 -60.07893746 70.12977808 -63 66 C-61.50807246 62.21989145 -59.41440807 60.50570301 -56.125 58.1875 C-54.82949219 57.24970703 -54.82949219 57.24970703 -53.5078125 56.29296875 C-51 55 -51 55 -48.890625 55.12109375 C-46.75145524 56.1155425 -45.33925504 57.25732271 -43.625 58.875 C-37.27476578 64.42478453 -32.482459 65.48875477 -24.078125 65.296875 C-20.46809179 64.94869921 -17.94937175 64.13010182 -15 62 C-13.50501087 59.01002175 -13.88422554 56.29957225 -14 53 C-14.33 52.01 -14.66 51.02 -15 50 C-18.33753528 48.38033532 -21.88314064 47.36521775 -25.421875 46.265625 C-26.44796875 45.93820312 -27.4740625 45.61078125 -28.53125 45.2734375 C-30.658403 44.59708545 -32.78860254 43.93023321 -34.921875 43.2734375 C-44.33198445 40.2386772 -52.22785661 36.22093149 -58 28 C-60.79960396 22.141754 -60.82164185 16.36587379 -60 10 C-57.2267709 2.28135474 -52.18801088 -2.34569245 -45 -6 C-44.33484375 -6.33902344 -43.6696875 -6.67804687 -42.984375 -7.02734375 C-28.53737903 -13.0101646 -12.23004734 -8.55671157 0 0 Z " fill="#353D3F" transform="translate(353,717)"/>
<path d="M0 0 C1.8569751 -0.00472824 1.8569751 -0.00472824 3.75146484 -0.009552 C5.11295609 -0.00776222 6.47444701 -0.00571127 7.8359375 -0.00341797 C9.22216814 -0.00409106 10.60839867 -0.00506113 11.99462891 -0.00631714 C14.90333172 -0.00779387 17.81200387 -0.00564037 20.72070312 -0.00097656 C24.45690348 0.00472073 28.19303202 0.00144159 31.92922974 -0.00454903 C34.79273016 -0.00815532 37.65621343 -0.00701574 40.51971436 -0.00442123 C41.89768482 -0.00375215 43.27565682 -0.00457973 44.65362549 -0.00690079 C46.57637504 -0.00942839 48.49913002 -0.0048957 50.421875 0 C52.06615479 0.00119339 52.06615479 0.00119339 53.74365234 0.00241089 C56.2109375 0.12939453 56.2109375 0.12939453 57.2109375 1.12939453 C58.38381251 5.92671787 58.47533929 10.60433733 56.22216797 15.10400391 C53.42786795 19.6119831 50.1860788 23.79044624 46.91308594 27.95800781 C44.75662642 30.70894742 42.66974857 33.50846973 40.58178711 36.31152344 C39.09484422 38.30495398 37.59696477 40.28978585 36.09765625 42.27392578 C29.23811117 51.39168176 22.75307701 60.78348094 16.2109375 70.12939453 C36.5059375 70.62439453 36.5059375 70.62439453 57.2109375 71.12939453 C57.2109375 76.40939453 57.2109375 81.68939453 57.2109375 87.12939453 C35.4309375 87.12939453 13.6509375 87.12939453 -8.7890625 87.12939453 C-8.7890625 72.22419552 -8.7890625 72.22419552 -3.6015625 65.94189453 C-2.49060739 64.48767981 -1.37993985 63.03324535 -0.26953125 61.57861328 C0.30748535 60.84562012 0.88450195 60.11262695 1.47900391 59.35742188 C4.29339236 55.73688211 6.92553184 51.98860545 9.5859375 48.25439453 C14.93289291 40.84080944 20.35533089 33.48298564 25.80615234 26.14550781 C26.64847412 25.00831299 26.64847412 25.00831299 27.5078125 23.84814453 C28.00635742 23.1771875 28.50490234 22.50623047 29.01855469 21.81494141 C30.27227485 20.13293079 30.27227485 20.13293079 31.2109375 18.12939453 C30.09533447 18.10433838 28.97973145 18.07928223 27.83032227 18.0534668 C23.7060116 17.95956032 19.581876 17.85929939 15.45776367 17.75708008 C13.6700448 17.71366753 11.88228276 17.67199725 10.09448242 17.63208008 C7.53030359 17.57452993 4.96634338 17.5107925 2.40234375 17.44580078 C1.5981752 17.42908829 0.79400665 17.41237579 -0.03453064 17.39515686 C-5.67519079 17.24326624 -5.67519079 17.24326624 -6.7890625 16.12939453 C-6.88881282 13.61803349 -6.92788433 11.14036038 -6.9140625 8.62939453 C-6.91792969 7.92685547 -6.92179687 7.22431641 -6.92578125 6.50048828 C-6.91318917 -0.03480373 -6.37035768 0.0046235 0 0 Z " fill="#363E40" transform="translate(442.7890625,823.87060546875)"/>
<path d="M0 0 C0.66178253 -0.00175232 1.32356506 -0.00350464 2.00540161 -0.00531006 C4.20284615 -0.00972764 6.40021083 -0.00679094 8.59765625 -0.00341797 C10.11840836 -0.00409104 11.63916037 -0.00506108 13.15991211 -0.00631714 C16.35108461 -0.00779398 19.54222917 -0.00563999 22.73339844 -0.00097656 C26.83280155 0.00472073 30.93213921 0.00144165 35.03153992 -0.00454903 C38.17297869 -0.008155 41.31440183 -0.00701589 44.45584106 -0.00442123 C45.96778369 -0.00375207 47.47972771 -0.00458003 48.9916687 -0.00690079 C51.10125512 -0.00942792 53.21073412 -0.00558591 55.3203125 0 C56.52308838 0.00079559 57.72586426 0.00159119 58.96508789 0.00241089 C61.66015625 0.12939453 61.66015625 0.12939453 62.66015625 1.12939453 C62.75990657 3.64075558 62.79897808 6.11842868 62.78515625 8.62939453 C62.78902344 9.33193359 62.79289063 10.03447266 62.796875 10.75830078 C62.78677003 16.00278075 62.78677003 16.00278075 61.66015625 17.12939453 C53.41015625 17.12939453 45.16015625 17.12939453 36.66015625 17.12939453 C36.66015625 40.88939453 36.66015625 64.64939453 36.66015625 89.12939453 C31.05015625 89.12939453 25.44015625 89.12939453 19.66015625 89.12939453 C18.66015625 88.12939453 18.66015625 88.12939453 18.53990173 85.31370544 C18.54323265 83.4250753 18.54323265 83.4250753 18.54663086 81.49829102 C18.54648483 80.80564148 18.54633881 80.11299194 18.54618835 79.39935303 C18.54688751 77.09970007 18.55467997 74.80012716 18.5625 72.50048828 C18.56436417 70.91008041 18.56578808 69.31967196 18.56678772 67.72926331 C18.57061296 63.53543523 18.5804433 59.34164158 18.5914917 55.14782715 C18.60170568 50.87150539 18.60628531 46.59517809 18.61132812 42.31884766 C18.62206556 33.92234745 18.63914206 25.52587527 18.66015625 17.12939453 C17.90806885 17.13463135 17.15598145 17.13986816 16.38110352 17.14526367 C12.99496283 17.1659668 9.60883541 17.1790333 6.22265625 17.19189453 C4.44665039 17.20446289 4.44665039 17.20446289 2.63476562 17.21728516 C1.51005859 17.22050781 0.38535156 17.22373047 -0.7734375 17.22705078 C-2.3366272 17.23490601 -2.3366272 17.23490601 -3.93139648 17.24291992 C-6.33984375 17.12939453 -6.33984375 17.12939453 -7.33984375 16.12939453 C-7.43959407 13.61803349 -7.47866558 11.14036038 -7.46484375 8.62939453 C-7.46871094 7.92685547 -7.47257813 7.22431641 -7.4765625 6.50048828 C-7.4633864 -0.33790735 -6.63392566 0.0043881 0 0 Z " fill="#3A4244" transform="translate(678.33984375,708.87060546875)"/>
<path d="M0 0 C0.67544861 -0.00861557 1.35089722 -0.01723114 2.04681396 -0.02610779 C4.26858375 -0.0487197 6.48908738 -0.0420393 8.7109375 -0.03295898 C10.26123427 -0.03819644 11.81152784 -0.04447337 13.36181641 -0.05174255 C16.60659815 -0.0621376 19.8509411 -0.05759811 23.09570312 -0.04296875 C27.24889485 -0.02577401 31.40070397 -0.04928753 35.55374146 -0.08445835 C38.75375492 -0.10644315 41.95343801 -0.10498856 45.15350342 -0.09669304 C46.68448402 -0.09587424 48.21548906 -0.10272402 49.74639893 -0.11746407 C51.88908334 -0.13493407 54.02928924 -0.12035354 56.171875 -0.09765625 C57.3892334 -0.09669449 58.6065918 -0.09573273 59.86083984 -0.09474182 C64.01413182 0.71424227 65.50590941 2.24163887 68.0859375 5.53344727 C68.70266436 9.43938405 68.7547186 11.50240974 66.5859375 14.84594727 C59.55458169 19.59211244 50.77983288 18.84026987 42.64453125 18.83422852 C41.36288589 18.83851364 40.08124054 18.84279877 38.76075745 18.84721375 C36.06027055 18.85463589 33.35991451 18.854413 30.65942383 18.84912109 C27.21417243 18.84331655 23.76945692 18.86029998 20.32429409 18.88346577 C17.01435137 18.90180606 13.70452441 18.89801692 10.39453125 18.89672852 C9.1652037 18.90593826 7.93587616 18.91514801 6.66929626 18.92463684 C-6.59441046 18.85309931 -6.59441046 18.85309931 -11.9140625 13.53344727 C-12.28515625 11.51000977 -12.28515625 11.51000977 -12.3515625 9.15844727 C-12.39152344 8.38758789 -12.43148438 7.61672852 -12.47265625 6.82250977 C-10.9859817 0.730263 -5.4419807 0.02770962 0 0 Z " fill="#FBF5ED" transform="translate(483.9140625,566.466552734375)"/>
<path d="M0 0 C1.07451416 -0.00630432 2.14902832 -0.01260864 3.25610352 -0.019104 C5.00298462 -0.01303131 5.00298462 -0.01303131 6.78515625 -0.00683594 C7.97616943 -0.00874939 9.16718262 -0.01066284 10.39428711 -0.01263428 C12.91618053 -0.01399724 15.43808094 -0.0102931 17.95996094 -0.00195312 C21.83153974 0.00874453 25.70265447 -0.00184499 29.57421875 -0.01464844 C32.01953228 -0.01332686 34.46484552 -0.01076451 36.91015625 -0.00683594 C38.07474365 -0.0108844 39.23933105 -0.01493286 40.43920898 -0.019104 C42.05098022 -0.00964752 42.05098022 -0.00964752 43.6953125 0 C45.11855835 0.00238678 45.11855835 0.00238678 46.57055664 0.00482178 C48.84765625 0.25878906 48.84765625 0.25878906 50.84765625 2.25878906 C51.36550417 6.05634046 51.00220707 7.96157595 49.22265625 11.38378906 C43.09117999 18.80610243 34.9344432 20.17904201 25.84765625 21.25878906 C15.5815014 22.14109516 6.1594103 21.98479694 -2.08984375 15.32128906 C-5.48253193 12.31358678 -7.03783096 9.6901989 -7.40234375 5.13378906 C-6.95467526 -0.01439862 -4.54505429 0.00762204 0 0 Z " fill="#FCF8F2" transform="translate(490.15234375,595.7412109375)"/>
<path d="M0 0 C3.50625 -0.0825 7.0125 -0.165 10.625 -0.25 C11.71893066 -0.28641602 12.81286133 -0.32283203 13.93994141 -0.36035156 C19.96509533 -0.42888202 23.45890819 -0.08551302 28 4 C30.2501879 7.37528185 30.38075981 8.89039037 30.5 12.875 C30.57734375 14.41800781 30.57734375 14.41800781 30.65625 15.9921875 C29.92705154 19.33434711 28.86418946 21.03458271 26.09472656 23.08007812 C21.53917385 25.08069848 16.49751121 24.49758598 11.625 24.3125 C5.870625 24.1578125 5.870625 24.1578125 0 24 C0 16.08 0 8.16 0 0 Z " fill="#FBF7F3" transform="translate(726,840)"/>
<path d="M0 0 C3.50625 -0.0825 7.0125 -0.165 10.625 -0.25 C11.71893066 -0.28641602 12.81286133 -0.32283203 13.93994141 -0.36035156 C19.96509533 -0.42888202 23.45890819 -0.08551302 28 4 C30.9657349 8.44860234 30.64087636 12.78143535 30 18 C28.19881522 21.00197464 27.09667268 22.45166366 24 24 C22.18658158 24.08471364 20.37005839 24.10721083 18.5546875 24.09765625 C17.58515137 24.09515869 16.61561523 24.09266113 15.61669922 24.09008789 C14.38193848 24.08098389 13.14717773 24.07187988 11.875 24.0625 C5.996875 24.0315625 5.996875 24.0315625 0 24 C0 16.08 0 8.16 0 0 Z " fill="#FBF8F4" transform="translate(610,726)"/>
<path d="M0 0 C5.21669997 3.47074562 9.38507437 8.32176857 13.390625 13.08984375 C14.40910046 14.29866535 15.45840083 15.48270997 16.546875 16.62890625 C18.8191942 19.07356427 19.95251327 20.76731502 20.625 24.0625 C19.75297335 28.16102524 18.407849 29.58610696 15 32 C11.72649165 32.58782354 10.11965779 32.82799837 7 32 C3.61785768 29.62218805 0.91914467 26.71939206 -1.875 23.6875 C-3.01195312 22.50897461 -3.01195312 22.50897461 -4.171875 21.30664062 C-11.8303466 13.3006761 -11.8303466 13.3006761 -12.375 9.125 C-11.91377729 5.28147742 -10.66559892 3.74399889 -8 1 C-4.98221063 -0.50889469 -3.37677363 -0.50026276 0 0 Z " fill="#FAF7F0" transform="translate(594,522)"/>
<path d="M0 0 C3.61420289 2.00789049 4.76234602 3.38209966 6.25 7.25 C5.87361467 12.89577996 2.86961698 15.11080654 -1 19 C-1.95464905 20.04192547 -2.90353384 21.08915156 -3.84765625 22.140625 C-12.56753864 31.83783456 -12.56753864 31.83783456 -17.3125 32.375 C-21 32 -21 32 -23.9375 29.9375 C-26 27 -26 27 -26.75 23.6875 C-25.6597278 18.32699501 -22.8117253 15.77909067 -19 12 C-18.05095798 11.02844175 -17.10310861 10.05571752 -16.15625 9.08203125 C-6.61542858 -0.64857143 -6.61542858 -0.64857143 0 0 Z " fill="#FAF7F1" transform="translate(608,352)"/>
<path d="M0 0 C4.08403601 -0.10778981 8.1652368 -0.18722647 12.25 -0.25 C13.40886719 -0.28351562 14.56773437 -0.31703125 15.76171875 -0.3515625 C16.87675781 -0.36445312 17.99179687 -0.37734375 19.140625 -0.390625 C20.16704102 -0.41157227 21.19345703 -0.43251953 22.25097656 -0.45410156 C25.70993333 0.1172714 26.82965814 1.31237459 29 4 C30.59561887 7.19123774 30.3799142 10.52745091 30 14 C28.36312815 17.58552881 27.31027417 18.79315055 24 21 C21.45629883 21.22705078 21.45629883 21.22705078 18.45703125 21.1953125 C16.84731445 21.18564453 16.84731445 21.18564453 15.20507812 21.17578125 C13.52575195 21.15064453 13.52575195 21.15064453 11.8125 21.125 C10.68134766 21.11597656 9.55019531 21.10695313 8.38476562 21.09765625 C5.58975371 21.07406965 2.79485041 21.03819841 0 21 C0 14.07 0 7.14 0 0 Z " fill="#FBF8F5" transform="translate(277,874)"/>
<path d="M0 0 C3.32961021 0.55493503 5.30091917 1.49496853 8 3.5 C9.74799363 6.99598727 10.13376718 9.81227308 9 13.5 C6.48286851 16.56090206 3.75306247 19.19543968 0.83984375 21.87109375 C-1.49467502 24.03220947 -3.54596413 26.1759901 -5.5625 28.625 C-8.45626415 32.03815772 -8.92689419 32.3987636 -13.3125 32.8125 C-17 32.5 -17 32.5 -19.9375 31 C-22.24605589 28.20175044 -22.8496475 26.28457151 -22.61328125 22.64453125 C-21.38146609 18.33710116 -18.13899833 15.54721476 -15 12.5 C-14.39027344 11.87867188 -13.78054688 11.25734375 -13.15234375 10.6171875 C-11.98814968 9.43508275 -10.81138213 8.26520069 -9.62109375 7.109375 C-8.15948312 5.65833023 -6.79139823 4.11452968 -5.4375 2.5625 C-3 0.5 -3 0.5 0 0 Z " fill="#FAF7F2" transform="translate(432,521.5)"/>
<path d="M0 0 C1.73160958 1.59908844 3.38661735 3.28170085 5 5 C6.09478226 6.09144451 7.19395721 7.17849593 8.296875 8.26171875 C9.44794781 9.40361444 10.59898906 10.54554195 11.75 11.6875 C12.33910156 12.26822266 12.92820312 12.84894531 13.53515625 13.44726562 C18.85721568 18.73873851 18.85721568 18.73873851 19.375 23.3125 C19 27 19 27 16.9375 29.9375 C14 32 14 32 10.625 32.6875 C3.3990985 31.31707041 -0.81057529 25.29829158 -5.35546875 19.87109375 C-7.10823739 17.78620237 -7.10823739 17.78620237 -9.9375 15.5 C-12.42694027 12.48249664 -12.74902768 10.76990848 -12.48046875 6.9375 C-10.88407391 0.50000534 -5.96284033 -1.06479292 0 0 Z " fill="#FBF7F2" transform="translate(422,352)"/>
<path d="M0 0 C1.22332031 -0.01933594 2.44664062 -0.03867187 3.70703125 -0.05859375 C13.66358046 -0.00418638 13.66358046 -0.00418638 16.8046875 2.91015625 C19.40675654 7.07706405 19.2696782 8.77602732 18.5 13.625 C15.90548786 16.29226924 14.21668067 17.49613666 10.53320312 18.15844727 C7.02079341 18.19404601 3.51256197 18.2189613 0 18.1875 C-1.22332031 18.21134766 -2.44664062 18.23519531 -3.70703125 18.25976562 C-13.68052226 18.24341564 -13.68052226 18.24341564 -16.8046875 15.30859375 C-19.0637466 11.7326177 -19.24197574 9.78006416 -18.5 5.625 C-14.13782173 -1.27005598 -7.48490291 -0.11830721 0 0 Z " fill="#FBF8F2" transform="translate(632.5,443.375)"/>
<path d="M0 0 C1.84174805 -0.03577148 1.84174805 -0.03577148 3.72070312 -0.07226562 C13.74806963 -0.05588996 13.74806963 -0.05588996 16.87109375 2.87890625 C19.12519505 6.45527483 19.30410583 8.40950735 18.5625 12.5625 C16.9051907 15.17829925 16.21308477 16.13989243 13.5625 17.5625 C9.05501902 18.34336588 4.62701655 18.3053129 0.0625 18.25 C-1.16082031 18.27771484 -2.38414062 18.30542969 -3.64453125 18.33398438 C-12.27423603 18.31040595 -12.27423603 18.31040595 -15.39233398 16.30566406 C-17.89272707 13.49013241 -18.43517008 11.69763547 -18.5 7.9375 C-15.55112243 -1.42952287 -8.41259867 -0.07483735 0 0 Z " fill="#FAF8F2" transform="translate(391.4375,443.4375)"/>
<path d="M0 0 C3.3608741 0.6601717 5.12025288 1.2911631 7.46582031 3.78588867 C9.89366332 8.25011653 9.20623605 13.74834829 9.125 18.6875 C9.15400391 20.4509375 9.15400391 20.4509375 9.18359375 22.25 C9.12921864 31.82001887 9.12921864 31.82001887 6.1484375 34.96484375 C2.87348008 37.09501517 1.33543732 37.4066445 -2.5 36.6875 C-5.19990662 34.88756226 -7.0418865 33.603727 -8.5 30.6875 C-8.82295365 26.77771683 -8.82448928 22.85896897 -8.875 18.9375 C-8.91238281 17.85210937 -8.94976562 16.76671875 -8.98828125 15.6484375 C-9.08723879 6.65429709 -9.08723879 6.65429709 -6.1953125 2.96484375 C-3.5 0.6875 -3.5 0.6875 0 0 Z " fill="#FAF7F0" transform="translate(511.5,311.3125)"/>
<path d="M0 0 C3.37635286 -0.13541522 6.74723976 -0.23431111 10.125 -0.3125 C11.07632812 -0.35439453 12.02765625 -0.39628906 13.0078125 -0.43945312 C20.96813961 -0.57765325 20.96813961 -0.57765325 24.640625 2.30078125 C27 5 27 5 27.625 8.5 C26.91563321 12.47245401 25.82768293 14.17231707 23 17 C20.54724859 18.2263757 18.9494219 18.11415314 16.2109375 18.09765625 C15.26992188 18.09443359 14.32890625 18.09121094 13.359375 18.08789062 C11.88210938 18.07532227 11.88210938 18.07532227 10.375 18.0625 C9.38242187 18.05798828 8.38984375 18.05347656 7.3671875 18.04882812 C4.91143278 18.03702161 2.45570894 18.01908582 0 18 C0 12.06 0 6.12 0 0 Z " fill="#FAF8F4" transform="translate(277,840)"/>
<path d="M0 0 C0.66178253 -0.00175232 1.32356506 -0.00350464 2.00540161 -0.00531006 C4.20284615 -0.00972764 6.40021083 -0.00679094 8.59765625 -0.00341797 C10.11840836 -0.00409104 11.63916037 -0.00506108 13.15991211 -0.00631714 C16.35108461 -0.00779398 19.54222917 -0.00563999 22.73339844 -0.00097656 C26.83280155 0.00472073 30.93213921 0.00144165 35.03153992 -0.00454903 C38.17297869 -0.008155 41.31440183 -0.00701589 44.45584106 -0.00442123 C45.96778369 -0.00375207 47.47972771 -0.00458003 48.9916687 -0.00690079 C51.10125512 -0.00942792 53.21073412 -0.00558591 55.3203125 0 C56.52308838 0.00079559 57.72586426 0.00159119 58.96508789 0.00241089 C61.66015625 0.12939453 61.66015625 0.12939453 62.66015625 1.12939453 C62.75990657 3.64075558 62.79897808 6.11842868 62.78515625 8.62939453 C62.78902344 9.33193359 62.79289063 10.03447266 62.796875 10.75830078 C62.78677003 16.00278075 62.78677003 16.00278075 61.66015625 17.12939453 C53.41015625 17.12939453 45.16015625 17.12939453 36.66015625 17.12939453 C36.66015625 40.88939453 36.66015625 64.64939453 36.66015625 89.12939453 C31.05015625 89.12939453 25.44015625 89.12939453 19.66015625 89.12939453 C18.66015625 88.12939453 18.66015625 88.12939453 18.53990173 85.27574158 C18.54212234 83.99888992 18.54434296 82.72203827 18.54663086 81.40649414 C18.54648483 80.70409103 18.54633881 80.00168793 18.54618835 79.27799988 C18.54688753 76.94588175 18.55468008 74.61384254 18.5625 72.28173828 C18.56436417 70.66891015 18.56578807 69.05608146 18.56678772 67.44325256 C18.57061302 63.19024096 18.5804434 58.93726329 18.5914917 54.68426514 C18.60170556 50.34762023 18.60628529 46.01096986 18.61132812 41.67431641 C18.62206566 33.15932684 18.63914222 24.6443649 18.66015625 16.12939453 C18.99015625 16.12939453 19.32015625 16.12939453 19.66015625 16.12939453 C19.66015625 39.55939453 19.66015625 62.98939453 19.66015625 87.12939453 C24.94015625 87.12939453 30.22015625 87.12939453 35.66015625 87.12939453 C35.65491943 84.98383057 35.64968262 82.8382666 35.64428711 80.62768555 C35.62775 73.55494714 35.61668454 66.48220789 35.60834408 59.4094553 C35.60311564 55.11939538 35.59601872 50.8293552 35.5847168 46.53930664 C35.5738865 42.40260053 35.56787911 38.26591345 35.56527901 34.12919426 C35.56342501 32.54747149 35.55980489 30.96574982 35.55442619 29.38403511 C35.54721385 27.17616615 35.54616539 24.9683768 35.54663086 22.76049805 C35.54441025 21.50141129 35.54218964 20.24232452 35.53990173 18.94508362 C35.66015625 16.12939453 35.66015625 16.12939453 36.66015625 15.12939453 C38.44086871 15.0421323 40.22498765 15.02240412 42.0078125 15.03173828 C43.08740234 15.03496094 44.16699219 15.03818359 45.27929688 15.04150391 C46.98375977 15.05407227 46.98375977 15.05407227 48.72265625 15.06689453 C50.43291992 15.07366211 50.43291992 15.07366211 52.17773438 15.08056641 C55.00523043 15.09239693 57.8326997 15.11033303 60.66015625 15.12939453 C60.66015625 10.83939453 60.66015625 6.54939453 60.66015625 2.12939453 C38.88015625 2.12939453 17.10015625 2.12939453 -5.33984375 2.12939453 C-5.33984375 6.08939453 -5.33984375 10.04939453 -5.33984375 14.12939453 C-5.66984375 14.12939453 -5.99984375 14.12939453 -6.33984375 14.12939453 C-6.5337825 11.98413354 -6.71983051 9.83815776 -6.90234375 7.69189453 C-7.05896484 5.89945313 -7.05896484 5.89945313 -7.21875 4.07080078 C-7.25871094 3.10013672 -7.29867187 2.12947266 -7.33984375 1.12939453 C-5.49187174 -0.71857748 -2.47188298 0.00163506 0 0 Z " fill="#1C2224" transform="translate(678.33984375,708.87060546875)"/>
<path d="M0 0 C2.01734646 3.02601968 3.12234522 5.72614182 4.3828125 9.12890625 C4.82753906 10.32837891 5.27226563 11.52785156 5.73046875 12.76367188 C5.95911621 13.38685303 6.18776367 14.01003418 6.42333984 14.65209961 C7.12449378 16.56112173 7.83327425 18.46718563 8.54296875 20.37304688 C12 29.7412992 12 29.7412992 12 32 C4.08 32 -3.84 32 -12 32 C-8.62061059 20.73536865 -8.62061059 20.73536865 -6.9921875 16.46484375 C-6.64542969 15.55412109 -6.29867187 14.64339844 -5.94140625 13.70507812 C-5.58949219 12.79177734 -5.23757813 11.87847656 -4.875 10.9375 C-4.51535156 9.98939453 -4.15570312 9.04128906 -3.78515625 8.06445312 C-1.13109756 1.13109756 -1.13109756 1.13109756 0 0 Z " fill="#F9F6F3" transform="translate(532,733)"/>
<path d="M0 0 C2.48898232 2.48898232 3.15849017 4.69428719 4.3828125 7.99609375 C5.04990234 9.79336914 5.04990234 9.79336914 5.73046875 11.62695312 C5.95911621 12.252229 6.18776367 12.87750488 6.42333984 13.52172852 C7.12209712 15.42957415 7.83185683 17.33305799 8.54296875 19.23632812 C12 28.61465926 12 28.61465926 12 32 C4.41 32 -3.18 32 -11 32 C-8.75 21.875 -8.75 21.875 -6.8359375 17.08984375 C-6.43632813 16.08115234 -6.03671875 15.07246094 -5.625 14.03320312 C-5.2125 13.01162109 -4.8 11.99003906 -4.375 10.9375 C-3.95476563 9.88111328 -3.53453125 8.82472656 -3.1015625 7.73632812 C-2.07373243 5.15507306 -1.03978554 2.57645691 0 0 Z " fill="#F9F7F3" transform="translate(555,847)"/>
<path d="M0 0 C0.66 0 1.32 0 2 0 C3.57079658 4.09181876 5.13726331 8.18526016 6.69970703 12.28027344 C7.2320421 13.67363368 7.76556577 15.0665404 8.30029297 16.45898438 C9.06789756 18.45845906 9.83123788 20.45951617 10.59375 22.4609375 C11.05458984 23.66540527 11.51542969 24.86987305 11.99023438 26.11083984 C13 29 13 29 13 31 C5.08 31 -2.84 31 -11 31 C-7.625 19.75 -7.625 19.75 -5.95703125 15.4296875 C-5.60576172 14.51445313 -5.25449219 13.59921875 -4.89257812 12.65625 C-4.53615234 11.7384375 -4.17972656 10.820625 -3.8125 9.875 C-3.44447266 8.91851563 -3.07644531 7.96203125 -2.69726562 6.9765625 C-1.80144555 4.64975711 -0.90232227 2.32428979 0 0 Z " fill="#F8F6F2" transform="translate(378,848)"/>
<path d="M0 0 C3.02608731 2.54380293 4.0899136 5.25192656 5.48046875 8.91015625 C5.92197266 10.06451172 6.36347656 11.21886719 6.81835938 12.40820312 C7.27017578 13.61412109 7.72199219 14.82003906 8.1875 16.0625 C8.65091797 17.27228516 9.11433594 18.48207031 9.59179688 19.72851562 C13 28.70830265 13 28.70830265 13 31 C5.08 31 -2.84 31 -11 31 C-7.625 19.75 -7.625 19.75 -5.95703125 15.4296875 C-5.60576172 14.51445313 -5.25449219 13.59921875 -4.89257812 12.65625 C-4.53615234 11.7384375 -4.17972656 10.820625 -3.8125 9.875 C-3.44447266 8.91851563 -3.07644531 7.96203125 -2.69726562 6.9765625 C-1.80144555 4.64975711 -0.90232227 2.32428979 0 0 Z " fill="#F5F2EF" transform="translate(650,848)"/>
<path d="M0 0 C0.33 0 0.66 0 1 0 C1.02312255 11.3261163 1.04091464 22.65222703 1.05181217 33.97836208 C1.05704119 39.23696664 1.06413918 44.4955551 1.07543945 49.75415039 C1.08626766 54.82453127 1.09227669 59.89489662 1.09487724 64.96528816 C1.09673161 66.90426948 1.10035245 68.84324991 1.10573006 70.78222466 C1.1129396 73.4882176 1.11399098 76.19414556 1.11352539 78.90014648 C1.11712067 79.71006546 1.12071594 80.51998444 1.12442017 81.35444641 C1.11405216 86.88594784 1.11405216 86.88594784 0 88 C-5.61 88 -11.22 88 -17 88 C-17 69.19 -17 50.38 -17 31 C-16.67 31 -16.34 31 -16 31 C-16 49.15 -16 67.3 -16 86 C-11.05 86 -6.1 86 -1 86 C-1.00222061 84.95208282 -1.00444122 83.90416565 -1.00672913 82.82449341 C-1.02697083 72.96530101 -1.04197712 63.10611281 -1.05181217 53.24690437 C-1.05703837 48.17777772 -1.06413128 43.1086678 -1.07543945 38.03955078 C-1.08627763 33.15071319 -1.09227882 28.26189173 -1.09487724 23.37304306 C-1.09672981 21.50466533 -1.10034721 19.63628852 -1.10573006 17.76791763 C-1.11295281 15.15792154 -1.11399041 12.54799271 -1.11352539 9.93798828 C-1.11712067 9.1597168 -1.12071594 8.38144531 -1.12442017 7.57958984 C-1.11405216 2.22810432 -1.11405216 2.22810432 0 0 Z " fill="#191E20" transform="translate(471,710)"/>
<path d="M0 0 C0.66 0 1.32 0 2 0 C2 28.38 2 56.76 2 86 C7.28 86 12.56 86 18 86 C18 75.77 18 65.54 18 55 C18.33 55 18.66 55 19 55 C19 65.89 19 76.78 19 88 C16.050625 88.020625 13.10125 88.04125 10.0625 88.0625 C8.66656616 88.07615601 8.66656616 88.07615601 7.24243164 88.09008789 C6.14983032 88.09383423 6.14983032 88.09383423 5.03515625 88.09765625 C4.2862915 88.10289307 3.53742676 88.10812988 2.76586914 88.11352539 C1 88 1 88 0 87 C-0.09514592 84.29161914 -0.12554932 81.60881487 -0.11352539 78.90014648 C-0.11367142 78.05143982 -0.11381744 77.20273315 -0.1139679 76.32830811 C-0.11326848 73.50921109 -0.10547478 70.69017929 -0.09765625 67.87109375 C-0.09579217 65.92196183 -0.09436822 63.97282945 -0.09336853 62.0236969 C-0.08954255 56.88293168 -0.07971159 51.74219453 -0.06866455 46.60144043 C-0.05845215 41.35994852 -0.05387128 36.1184521 -0.04882812 30.87695312 C-0.03808939 20.58462306 -0.02101201 10.29231386 0 0 Z " fill="#232C2D" transform="translate(591,710)"/>
<path d="M0 0 C1.8569751 -0.00472824 1.8569751 -0.00472824 3.75146484 -0.009552 C5.11295609 -0.00776222 6.47444701 -0.00571127 7.8359375 -0.00341797 C9.22216814 -0.00409106 10.60839867 -0.00506113 11.99462891 -0.00631714 C14.90333172 -0.00779387 17.81200387 -0.00564037 20.72070312 -0.00097656 C24.45690348 0.00472073 28.19303202 0.00144159 31.92922974 -0.00454903 C34.79273016 -0.00815532 37.65621343 -0.00701574 40.51971436 -0.00442123 C41.89768482 -0.00375215 43.27565682 -0.00457973 44.65362549 -0.00690079 C46.57637504 -0.00942839 48.49913002 -0.0048957 50.421875 0 C52.06615479 0.00119339 52.06615479 0.00119339 53.74365234 0.00241089 C56.2109375 0.12939453 56.2109375 0.12939453 57.2109375 1.12939453 C57.38923915 3.0614829 57.47887167 5.00210825 57.5234375 6.94189453 C57.57951172 8.529375 57.57951172 8.529375 57.63671875 10.14892578 C57.12095987 13.75923791 55.98796296 14.86724164 53.2109375 17.12939453 C53.7059375 15.64439453 53.7059375 15.64439453 54.2109375 14.12939453 C54.43545208 11.90365118 54.61876628 9.67357934 54.7734375 7.44189453 C54.85722656 6.26240234 54.94101562 5.08291016 55.02734375 3.86767578 C55.11822266 2.51222656 55.11822266 2.51222656 55.2109375 1.12939453 C54.5509375 1.45939453 53.8909375 1.78939453 53.2109375 2.12939453 C51.3623667 2.22041065 49.51047371 2.24692599 47.65966797 2.24291992 C46.49861542 2.24284439 45.33756287 2.24276886 44.1413269 2.24269104 C42.88297028 2.23752975 41.62461365 2.23236847 40.328125 2.22705078 C39.04358429 2.22563583 37.75904358 2.22422089 36.43557739 2.22276306 C33.01936908 2.21894364 29.60320324 2.20911826 26.18701172 2.19805908 C22.70150324 2.1878326 19.2159879 2.18326279 15.73046875 2.17822266 C8.89060579 2.16749548 2.05077805 2.14990333 -4.7890625 2.12939453 C-4.7890625 6.08939453 -4.7890625 10.04939453 -4.7890625 14.12939453 C-5.1190625 14.12939453 -5.4490625 14.12939453 -5.7890625 14.12939453 C-5.98300125 11.98413354 -6.16904926 9.83815776 -6.3515625 7.69189453 C-6.50818359 5.89945313 -6.50818359 5.89945313 -6.66796875 4.07080078 C-6.70792969 3.10013672 -6.74789063 2.12947266 -6.7890625 1.12939453 C-5.00989783 -0.64977014 -2.40592951 0.00174618 0 0 Z " fill="#1F292C" transform="translate(442.7890625,823.87060546875)"/>
<path d="M0 0 C1.1702623 0.0199855 2.3405246 0.03997101 3.54624939 0.06056213 C4.51207191 0.07497345 4.51207191 0.07497345 5.49740601 0.0896759 C7.63480715 0.12277043 9.77201047 0.16306241 11.9092865 0.2033844 C13.3875864 0.22767533 14.86589371 0.25151939 16.34420776 0.27493286 C20.2421866 0.33787611 24.14003494 0.40691349 28.03788757 0.47718811 C32.01253803 0.54777934 35.98728128 0.61265134 39.96202087 0.67799377 C47.76615994 0.80713801 55.57017004 0.94271552 63.37413025 1.08229065 C63.37413025 1.41229065 63.37413025 1.74229065 63.37413025 2.08229065 C41.92413025 2.08229065 20.47413025 2.08229065 -1.62586975 2.08229065 C-1.62586975 6.04229065 -1.62586975 10.00229065 -1.62586975 14.08229065 C-1.95586975 14.08229065 -2.28586975 14.08229065 -2.62586975 14.08229065 C-2.81980851 11.93702966 -3.00585652 9.79105388 -3.18836975 7.64479065 C-3.34499084 5.85234924 -3.34499084 5.85234924 -3.504776 4.0236969 C-3.54473694 3.05303284 -3.58469788 2.08236877 -3.62586975 1.08229065 C-2.62586975 0.08229065 -2.62586975 0.08229065 0 0 Z " fill="#192427" transform="translate(674.6258697509766,708.9177093505859)"/>
<path d="M0 0 C2.475 0.495 2.475 0.495 5 1 C4.01 1.33 3.02 1.66 2 2 C2 8.93 2 15.86 2 23 C7.94 23 13.88 23 20 23 C20 23.33 20 23.66 20 24 C13.4 24 6.8 24 0 24 C0 16.08 0 8.16 0 0 Z " fill="#E0E0DF" transform="translate(726,840)"/>
<path d="M0 0 C0.33 0 0.66 0 1 0 C1 18.15 1 36.3 1 55 C0.67 55 0.34 55 0 55 C-0.00808685 54.39056549 -0.01617371 53.78113098 -0.02450562 53.15322876 C-0.11036845 46.82687016 -0.20986327 40.50083154 -0.31738281 34.17480469 C-0.35573527 31.81190349 -0.39057692 29.44894266 -0.421875 27.0859375 C-0.46738966 23.6950952 -0.52540619 20.30466576 -0.5859375 16.9140625 C-0.60326431 15.32182358 -0.60326431 15.32182358 -0.62094116 13.69741821 C-0.64081085 12.71655243 -0.66068054 11.73568665 -0.68115234 10.72509766 C-0.69447601 9.85905914 -0.70779968 8.99302063 -0.7215271 8.10073853 C-0.81220713 5.78242358 -0.81220713 5.78242358 -3 4 C-2.02727325 2.64664105 -1.0260734 1.31337396 0 0 Z " fill="#EFEEEA" transform="translate(453,741)"/>
<path d="M0 0 C2.75661088 2.48984209 4.60746455 4.20549066 5 8 C4 9 4 9 2.05053711 9.11352539 C1.2178833 9.10828857 0.38522949 9.10305176 -0.47265625 9.09765625 C-1.37177734 9.09443359 -2.27089844 9.09121094 -3.19726562 9.08789062 C-4.14279297 9.07951172 -5.08832031 9.07113281 -6.0625 9.0625 C-7.01189453 9.05798828 -7.96128906 9.05347656 -8.93945312 9.04882812 C-11.29303065 9.0370011 -13.64648477 9.02052025 -16 9 C-15.67 8.01 -15.34 7.02 -15 6 C-9.06 6.33 -3.12 6.66 3 7 C2.01 5.35 1.02 3.7 0 2 C0 1.34 0 0.68 0 0 Z " fill="#2E3535" transform="translate(657,789)"/>
<path d="M0 0 C0.66 0 1.32 0 2 0 C2.33 1.32 2.66 2.64 3 4 C-4.92 4 -12.84 4 -21 4 C-21 3.34 -21 2.68 -21 2 C-10.605 1.505 -10.605 1.505 0 1 C0 0.67 0 0.34 0 0 Z " fill="#DEDDDB" transform="translate(388,875)"/>
<path d="M0 0 C0.99 0 1.98 0 3 0 C3.33 1.98 3.66 3.96 4 6 C-3.26 6 -10.52 6 -18 6 C-13.46532336 2.59899252 -12.2087218 2.66086884 -6.75 2.8125 C-5.48671875 2.83957031 -4.2234375 2.86664062 -2.921875 2.89453125 C-1.95765625 2.92933594 -0.9934375 2.96414063 0 3 C0 2.01 0 1.02 0 0 Z " fill="#DBDBD6" transform="translate(563,873)"/>
<path d="M0 0 C2.88250984 2.38120378 3.61038985 4.29870356 4 8 C3 9 3 9 1.23413086 9.11352539 C0.48526611 9.10828857 -0.26359863 9.10305176 -1.03515625 9.09765625 C-1.84404297 9.09443359 -2.65292969 9.09121094 -3.48632812 9.08789062 C-4.33646484 9.07951172 -5.18660156 9.07113281 -6.0625 9.0625 C-6.91650391 9.05798828 -7.77050781 9.05347656 -8.65039062 9.04882812 C-10.76695663 9.03700373 -12.88348685 9.01906769 -15 9 C-15.33 7.68 -15.66 6.36 -16 5 C-15.67 5.66 -15.34 6.32 -15 7 C-9.39 7 -3.78 7 2 7 C1.34 4.69 0.68 2.38 0 0 Z " fill="#2A3031" transform="translate(572,789)"/>
<path d="M0 0 C4.37417381 3.46917233 5.91422104 7.66981239 7 13 C6.875 16.9375 6.875 16.9375 6 20 C5.01 20.66 4.02 21.32 3 22 C3.03480469 21.16597656 3.06960938 20.33195313 3.10546875 19.47265625 C3.27964644 12.23184082 2.7316536 6.71531509 0 0 Z " fill="#F4F4F3" transform="translate(322,871)"/>
<path d="M0 0 C1 4 1 4 0 9 C6.93 9 13.86 9 21 9 C21 9.33 21 9.66 21 10 C13.08 10 5.16 10 -3 10 C-2.01 6.7 -1.02 3.4 0 0 Z " fill="#DBDAD7" transform="translate(523,755)"/>
<path d="M0 0 C1.95418308 2.93127462 2.64700993 4.55834679 3 8 C2.34 8.66 1.68 9.32 1 10 C0.3162387 12.88717605 0.3162387 12.88717605 -0.125 16.125 C-0.29257812 17.22070312 -0.46015625 18.31640625 -0.6328125 19.4453125 C-0.75398438 20.28835938 -0.87515625 21.13140625 -1 22 C-1.33 22 -1.66 22 -2 22 C-2.30071865 14.44862068 -1.42625566 7.41143564 0 0 Z " fill="#FC9314" transform="translate(304,351)"/>
<path d="M0 0 C2.8125 1.3125 2.8125 1.3125 5 3 C5.33 3.99 5.66 4.98 6 6 C5.01 5.67 4.02 5.34 3 5 C3 4.34 3 3.68 3 3 C0.03 2.67 -2.94 2.34 -6 2 C-6.66 3.32 -7.32 4.64 -8 6 C-8.66 5.01 -9.32 4.02 -10 3 C-6.68588466 -0.05918339 -4.46341716 -0.54654088 0 0 Z " fill="#FBF2E4" transform="translate(435,522)"/>
<path d="M0 0 C2.86123584 2.86123584 4.31619211 5.15280732 6.1875 8.6875 C6.71730469 9.68136719 7.24710937 10.67523437 7.79296875 11.69921875 C8.19128906 12.45847656 8.58960938 13.21773437 9 14 C6 13 6 13 4 11 C3.34 11.66 2.68 12.32 2 13 C1.34 8.71 0.68 4.42 0 0 Z " fill="#F0F1EE" transform="translate(397,741)"/>
<path d="M0 0 C0.66 0.33 1.32 0.66 2 1 C0.71937515 2.7074998 -0.61767557 4.37373596 -2 6 C-2.66 6 -3.32 6 -4 6 C-2.02 8.64 -0.04 11.28 2 14 C-2.0084034 11.9957983 -3.41409657 10.50944037 -6 7 C-4.60667426 3.63279613 -3.0210714 2.0140476 0 0 Z " fill="#1E2325" transform="translate(296,776)"/>
<path d="M0 0 C1.231394 3.69418201 0.64432764 6.2056261 0 10 C-0.99 10.33 -1.98 10.66 -3 11 C-4.20882096 13.00016466 -4.20882096 13.00016466 -5 15 C-4.43174347 9.45949887 -2.37113483 4.96284034 0 0 Z " fill="#21282A" transform="translate(502,762)"/>
<path d="M0 0 C0.99 0 1.98 0 3 0 C2.34 5.28 1.68 10.56 1 16 C0.67 16 0.34 16 0 16 C0 10.72 0 5.44 0 0 Z " fill="#41484A" transform="translate(656,730)"/>
<path d="M0 0 C0 3.41987028 -0.47254343 5.94508687 -2 9 C-3.64363134 9.72159424 -5.31050386 10.39351421 -7 11 C-5.5140084 6.40693504 -3.14985318 3.56430755 0 0 Z " fill="#FD9519" transform="translate(580,494)"/>
<path d="M0 0 C3.0916909 2.52956528 3.90931332 5.22454612 5 9 C4.01 8.67 3.02 8.34 2 8 C2 7.01 2 6.02 2 5 C0.02 5.99 0.02 5.99 -2 7 C-1.34 4.69 -0.68 2.38 0 0 Z " fill="#F0F0EF" transform="translate(650,848)"/>
<path d="M0 0 C0.66 0 1.32 0 2 0 C2.66 2.31 3.32 4.62 4 7 C3.34 7 2.68 7 2 7 C1.67 6.34 1.34 5.68 1 5 C0.01 5.66 -0.98 6.32 -2 7 C-1.34 4.69 -0.68 2.38 0 0 Z " fill="#EBEBEB" transform="translate(378,848)"/>
<path d="M0 0 C4.455 0.99 4.455 0.99 9 2 C9 2.66 9 3.32 9 4 C9.99 4.33 10.98 4.66 12 5 C7.25081338 4.53439347 3.89217595 3.83067342 0 1 C0 0.67 0 0.34 0 0 Z " fill="#1F2426" transform="translate(301,792)"/>
<path d="M0 0 C3.93673644 1.31224548 6.22719294 2.91910327 9 6 C8.01 6.495 8.01 6.495 7 7 C6.608125 6.54625 6.21625 6.0925 5.8125 5.625 C3.69167513 3.72357081 1.66957765 2.93795972 -1 2 C-0.67 1.34 -0.34 0.68 0 0 Z " fill="#F0F1EE" transform="translate(331,764)"/>
<path d="M0 0 C0.66 0.33 1.32 0.66 2 1 C0.68 4.3 -0.64 7.6 -2 11 C-2.66 10.34 -3.32 9.68 -4 9 C-3.625 6.375 -3.625 6.375 -3 4 C-2.34 4 -1.68 4 -1 4 C-0.67 2.68 -0.34 1.36 0 0 Z " fill="#ECEBEA" transform="translate(509,740)"/>
<path d="M0 0 C0.33 1.32 0.66 2.64 1 4 C1.66 4 2.32 4 3 4 C3.33 5.98 3.66 7.96 4 10 C3.34 10 2.68 10 2 10 C-1.07692308 4.58461538 -1.07692308 4.58461538 -0.6875 1.625 C-0.460625 1.08875 -0.23375 0.5525 0 0 Z " fill="#F4F3F1" transform="translate(403,712)"/>
<path d="M0 0 C0.99 0.33 1.98 0.66 3 1 C2.34 2.32 1.68 3.64 1 5 C0.34 5 -0.32 5 -1 5 C-1.33 5.99 -1.66 6.98 -2 8 C-2.33 7.34 -2.66 6.68 -3 6 C-2.06553465 3.96855359 -1.06775224 1.96466413 0 0 Z " fill="#EFEFED" transform="translate(538,894)"/>
<path d="M0 0 C1.0326802 2.78823655 1.04509293 3.8677274 0.0625 6.75 C-0.288125 7.4925 -0.63875 8.235 -1 9 C-1.66 8.67 -2.32 8.34 -3 8 C-2.45276317 4.62537285 -1.9451 2.91765 0 0 Z " fill="#F0F0EE" transform="translate(347,876)"/>
<path d="M0 0 C1.0326802 2.78823655 1.04509293 3.8677274 0.0625 6.75 C-0.288125 7.4925 -0.63875 8.235 -1 9 C-1.66 8.67 -2.32 8.34 -3 8 C-2.67 6.02 -2.34 4.04 -2 2 C-1.34 2 -0.68 2 0 2 C0 1.34 0 0.68 0 0 Z " fill="#EFEFEE" transform="translate(522,880)"/>
<path d="M0 0 C0.99 0.33 1.98 0.66 3 1 C3.33 3.31 3.66 5.62 4 8 C3.34 8 2.68 8 2 8 C0.74335022 5.09399739 0 3.20395416 0 0 Z " fill="#F3F2F0" transform="translate(666,837)"/>
<path d="M0 0 C0.99 0.33 1.98 0.66 3 1 C3.33 3.31 3.66 5.62 4 8 C3.34 8 2.68 8 2 8 C0.74335022 5.09399739 0 3.20395416 0 0 Z " fill="#F0F0EE" transform="translate(547,722)"/>
<path d="M0 0 C2.79872437 2.52788007 4.45773019 4.20411134 5 8 C4.01 8 3.02 8 2 8 C0.74335022 5.09399739 0 3.20395416 0 0 Z " fill="#F2F2F0" transform="translate(416,892)"/>
<path d="M0 0 C0.99 0.495 0.99 0.495 2 1 C1.01 1.495 1.01 1.495 0 2 C0 1.34 0 0.68 0 0 Z M-1 2 C-0.67 2.99 -0.34 3.98 0 5 C-1.32 6.32 -2.64 7.64 -4 9 C-4.66 8.67 -5.32 8.34 -6 8 C-4.35 6.02 -2.7 4.04 -1 2 Z " fill="#EEEFEC" transform="translate(467,881)"/>
<path d="M0 0 C0.66 0.33 1.32 0.66 2 1 C1.34 2.65 0.68 4.3 0 6 C0.66 6 1.32 6 2 6 C2 6.66 2 7.32 2 8 C0.68 8.33 -0.64 8.66 -2 9 C-1.34 6.03 -0.68 3.06 0 0 Z " fill="#F0F1EF" transform="translate(546,870)"/>
<path d="M0 0 C1.0625 1.875 1.0625 1.875 2 4 C1.67 4.66 1.34 5.32 1 6 C-1.475 5.01 -1.475 5.01 -4 4 C-4 3.34 -4 2.68 -4 2 C-2.68 1.34 -1.36 0.68 0 0 Z " fill="#EBEAE9" transform="translate(315,862)"/>
<path d="M0 0 C0.99 0.33 1.98 0.66 3 1 C3.33 3.31 3.66 5.62 4 8 C3.34 8 2.68 8 2 8 C0.74335022 5.09399739 0 3.20395416 0 0 Z " fill="#F2F2F1" transform="translate(672,852)"/>
<path d="M0 0 C0.33 0.66 0.66 1.32 1 2 C-0.65 4.31 -2.3 6.62 -4 9 C-4.33 8.01 -4.66 7.02 -5 6 C-3.59554165 3.7363436 -1.8032087 1.9791315 0 0 Z " fill="#EDEDEC" transform="translate(422,175)"/>
</svg>
